<mxfile host="app.diagrams.net" modified="2022-02-15T06:59:41.994Z" agent="5.0 (Windows NT 10.0; Win64; x64) AppleWebKit/537.36 (KHTML, like Gecko) Chrome/98.0.4758.82 Safari/537.36" etag="z70W2_1KQI837TOI7-x-" version="16.4.5" type="github" pages="2">
  <diagram id="3TZ2tadPMnm7s_Wrbus7" name="第1页">
    <mxGraphModel dx="920" dy="447" grid="1" gridSize="10" guides="1" tooltips="1" connect="1" arrows="1" fold="1" page="1" pageScale="1" pageWidth="827" pageHeight="1169" math="0" shadow="0">
      <root>
        <mxCell id="0" />
        <mxCell id="1" parent="0" />
      </root>
    </mxGraphModel>
  </diagram>
  <diagram id="xcjwwgMs-6jE8xBhYvx0" name="第 2 页">
    <mxGraphModel dx="782" dy="380" grid="1" gridSize="10" guides="1" tooltips="1" connect="1" arrows="1" fold="1" page="1" pageScale="1" pageWidth="827" pageHeight="1169" math="0" shadow="0">
      <root>
        <mxCell id="LqQ59RPgb8xfy1UJ6hiB-0" />
        <mxCell id="LqQ59RPgb8xfy1UJ6hiB-1" parent="LqQ59RPgb8xfy1UJ6hiB-0" />
      </root>
    </mxGraphModel>
  </diagram>
</mxfile>
